<svg width="24" height="24" viewBox="0 0 24 24" fill="none" xmlns="http://www.w3.org/2000/svg">
<path fill-rule="evenodd" clip-rule="evenodd" d="M4.25 12C4.25 11.5858 4.58579 11.25 5 11.25L18 11.25C18.4142 11.25 18.75 11.5858 18.75 12C18.75 12.4142 18.4142 12.75 18 12.75L5 12.75C4.58579 12.75 4.25 12.4142 4.25 12Z" fill="#14142B"/>
<path fill-rule="evenodd" clip-rule="evenodd" d="M14.4697 7.46967C14.7626 7.17678 15.2374 7.17678 15.5303 7.46967L19.1768 11.1161C19.6649 11.6043 19.6649 12.3957 19.1768 12.8839L15.5303 16.5303C15.2374 16.8232 14.7626 16.8232 14.4697 16.5303C14.1768 16.2374 14.1768 15.7626 14.4697 15.4697L17.9393 12L14.4697 8.53033C14.1768 8.23744 14.1768 7.76256 14.4697 7.46967Z" fill="#14142B"/>
</svg>
